<svg width="100" height="100" viewBox="0 0 100 100" fill="none" xmlns="http://www.w3.org/2000/svg">
<rect x="3" y="3" width="94" height="94" rx="47" fill="#621E01" fill-opacity="0.62"/>
<rect x="3" y="3" width="94" height="94" rx="47" stroke="white" stroke-width="6"/>
<path d="M74.25 35.75C74.25 28.1875 69.3 22 63.25 22H35.75C29.7 22 24.75 28.1875 24.75 35.75V48.8125C23.1 50.5312 22 53.2812 22 56.375V65.6563V66.6875V73.5625C22 75.625 23.1 77 24.75 77C26.4 77 27.5 75.625 27.5 73.5625V70.125H71.5V73.5625C71.5 75.625 72.6 77 74.25 77C75.9 77 77 75.625 77 73.5625V66.6875V65.6563V56.375C77 53.2812 75.9 50.5312 74.25 48.8125V35.75ZM30.25 35.75C30.25 31.9688 32.725 28.875 35.75 28.875H63.25C66.275 28.875 68.75 31.9688 68.75 35.75V46.0625H66V42.625C66 36.7812 62.425 32.3125 57.75 32.3125H55C52.8 32.3125 50.875 33.3438 49.5 35.0625C48.125 33.3438 46.2 32.3125 44 32.3125H41.25C36.575 32.3125 33 36.7812 33 42.625V46.0625H30.25V35.75ZM60.5 42.625V46.0625H52.25V42.625C52.25 40.5625 53.35 39.1875 55 39.1875H57.75C59.4 39.1875 60.5 40.5625 60.5 42.625ZM46.75 42.625V46.0625H38.5V42.625C38.5 40.5625 39.6 39.1875 41.25 39.1875H44C45.65 39.1875 46.75 40.5625 46.75 42.625ZM71.5 63.25H27.5V56.375C27.5 54.3125 28.6 52.9375 30.25 52.9375H38.5H46.75H52.25H60.5H68.75C70.4 52.9375 71.5 54.3125 71.5 56.375V63.25Z" fill="white"/>
</svg>
