<svg width="100" height="100" viewBox="0 0 100 100" fill="none" xmlns="http://www.w3.org/2000/svg">
<rect x="3" y="3" width="94" height="94" rx="47" fill="#7B00FF" fill-opacity="0.62"/>
<rect x="3" y="3" width="94" height="94" rx="47" stroke="white" stroke-width="6"/>
<path fill-rule="evenodd" clip-rule="evenodd" d="M50.3924 70.869C49.991 71.1562 49.6169 71.4169 49.275 71.6506C48.9103 71.4148 48.5058 71.1434 48.0671 70.8376C45.9988 69.3944 43.3164 67.276 40.6746 64.6339C35.2559 59.2142 30.7 52.2961 30.7 44.9167C30.7 34.7914 39.117 26.5833 49.5 26.5833C59.8829 26.5833 68.3 34.7914 68.3 44.9167C68.3 52.217 63.5433 59.1152 57.9265 64.5923C55.2014 67.25 52.4591 69.3914 50.3924 70.869ZM73 44.9167C73 63.25 49.5 77 49.5 77C48.325 77 26 63.25 26 44.9167C26 32.2601 36.5213 22 49.5 22C62.4786 22 73 32.2601 73 44.9167ZM54.2 44.9167C54.2 47.4479 52.0957 49.5 49.5 49.5C46.9043 49.5 44.8 47.4479 44.8 44.9167C44.8 42.3854 46.9043 40.3333 49.5 40.3333C52.0957 40.3333 54.2 42.3854 54.2 44.9167ZM58.9 44.9167C58.9 49.9794 54.6916 54.0833 49.5 54.0833C44.3084 54.0833 40.1 49.9794 40.1 44.9167C40.1 39.8541 44.3084 35.75 49.5 35.75C54.6916 35.75 58.9 39.8541 58.9 44.9167Z" fill="white"/>
</svg>
