<svg width="100" height="100" viewBox="0 0 100 100" fill="none" xmlns="http://www.w3.org/2000/svg">
<rect x="3" y="3" width="94" height="94" rx="47" fill="#FF0000" fill-opacity="0.62"/>
<rect x="3" y="3" width="94" height="94" rx="47" stroke="white" stroke-width="6"/>
<path d="M44.2 25.0099V37.0002H40.6667V25.0836C40.6667 24.4856 39.8752 24.0003 38.9 24.0003C37.9248 24.0003 37.1333 24.4856 37.1333 25.0836V37.0002H33.6V25.0446C33.6 23.6504 30.0667 23.698 30.0667 25.0088V37.0002H26.5333V25.0944C26.5333 23.6179 23 23.672 23 25.0359V40.7139C23 42.9748 26.5333 44.4654 30.0667 44.4654V72.75C30.0667 77.0833 40.6667 77.0833 40.6667 72.75V44.4665C44.2 44.4665 47.7333 42.666 47.7333 40.9706V25.0446C47.7333 23.6634 44.2 23.7164 44.2 25.0099ZM60.1 28.3336V55.4168H63.6333V72.75C63.6333 77.0833 76 77.0833 76 72.75V28.3336C76 22.9169 60.1 22.9169 60.1 28.3336Z" fill="white"/>
</svg>
